<svg xmlns="http://www.w3.org/2000/svg" viewBox="0 0 512 512"><g stroke-width="2" fill="none"><path stroke="#80a0ff" vector-effect="non-scaling-stroke" d="M40.01 375.76q.02 6.69-.02 13.36-.06 8.62 1.35 12.1c3.16 7.8 9.78 9.78 18.09 9.78q195.57-.01 391.14.01 7.89 0 11.22-1.21 6.18-2.25 8.68-8.18 1.55-3.65 1.54-12.94-.03-134.2 0-268.39 0-6.11-1.34-9.39-4.07-9.95-16.42-9.93-25.53.04-51.37.03"/><path stroke="#8ba6ff" vector-effect="non-scaling-stroke" d="M402.88 101q-171.44-.01-343.17.02-6.91 0-10.21 1.41c-7.85 3.35-9.48 9.79-9.49 18.28q-.02 127.57 0 255.05"/><path stroke="#ddedff" vector-effect="non-scaling-stroke" d="M402.88 101q-2.51 27.24-9.5 54.18"/><path stroke="#8ba6ff" vector-effect="non-scaling-stroke" d="M393.38 155.18c-7.53-7.03-14.38-14.14-24.32-10.32-9.3 3.57-13.31 14.32-8.49 22.83 2.01 3.54 6.29 6.71 9.54 9.71q7.45 6.88 12.19 13.46"/><path stroke="#ddedff" vector-effect="non-scaling-stroke" d="M382.3 190.86q-7.76 18.59-17.77 36.64"/><path stroke="#8ba6ff" vector-effect="non-scaling-stroke" d="M364.53 227.5q-6.16-20.31-19.27-34.61c-4.83-5.27-9.94-8.51-16.89-7.03-10.2 2.17-15.84 12.99-11.52 22.27 1.97 4.25 7 8.43 9.78 12.76 12.75 19.89 12.08 45.23-3.24 63.76q-2.65 3.21-5.11 5.61"/><path stroke="#ddedff" vector-effect="non-scaling-stroke" d="M318.28 290.26q-4.36 3.16-8.17 6.73-6.8 6.37-6.83 6.4-32.41 28.17-71.96 46.51"/><path stroke="#8ba6ff" vector-effect="non-scaling-stroke" d="M231.32 349.9q-4.18-2.89-8.07-2.89-63.5-.02-127-.01c-19.53 0-22.17 27.54-3.25 31.76q1.67.37 7.49.27"/><path stroke="#ddedff" vector-effect="non-scaling-stroke" d="M100.49 379.03c-5.42 1.72-10.66.54-15.17.43q-22.7-.55-45.31-3.7"/><path stroke="#80a0ff" vector-effect="non-scaling-stroke" d="M100.49 379.03q58.93-.06 117.93-.02 5.8.01 8.1-.69c13.32-4.01 14.96-19.86 4.8-28.42M318.28 290.26q-4.44 7.12-2.52 13.73c2.64 9.1 12.31 14.52 20.97 11.08q4.14-1.65 9.39-7.57 14.24-16.04 19.09-36.5 5.23-22.07-.68-43.5M382.3 190.86c31.21 42.67 24.98 101.2-14.91 135.76q-4.51 3.9-5.72 5.82c-7.58 12.06 3.61 27.31 17.39 23.92q3.7-.91 8.3-4.79c40.26-34.03 56.58-89.13 40.95-139.71q-10.22-33.06-34.93-56.68"/><path stroke="#8ba6ff" vector-effect="non-scaling-stroke" d="M196.79 248.66c-12.13 28.51-47.73 37.97-71.42 17.22-22.65-19.85-19.77-56.3 5.9-72.11q19.44-11.96 40.91-3.38 5.53 2.21 7.06 2.41c14.46 1.87 23.51-14.99 14.28-26.13-2.65-3.19-6.81-5.05-10.74-6.53-52.93-19.92-109.62 21.56-104.48 78.49 3.47 38.5 34.75 68.58 73.22 70.27 41.82 1.83 77.11-29.89 80.28-71.35.69-9.07-.97-16.6-9.6-20.23q-3.16-1.32-9.08-1.32-18.47.01-36.95-.01-7.5-.02-10.7 1.2c-16.84 6.39-11.28 31.21 7.03 30.83q9.09-.19 23.9.06.63.01.39.58"/></g><path fill="#2e58ff" d="M455.8 443H56.2A48.2 48.2 0 0 1 8 394.8V117.2A48.2 48.2 0 0 1 56.2 69h399.6a48.2 48.2 0 0 1 48.2 48.2v277.6a48.2 48.2 0 0 1-48.2 48.2ZM40.01 375.76q.02 6.69-.02 13.36-.06 8.62 1.35 12.1c3.16 7.8 9.78 9.78 18.09 9.78q195.57-.01 391.14.01 7.89 0 11.22-1.21 6.18-2.25 8.68-8.18 1.55-3.65 1.54-12.94-.03-134.2 0-268.39 0-6.11-1.34-9.39-4.07-9.95-16.42-9.93-25.53.04-51.37.03-171.44-.01-343.17.02-6.91 0-10.21 1.41c-7.85 3.35-9.48 9.79-9.49 18.28q-.02 127.57 0 255.05Z"/><path fill="#e8f3ff" d="M402.88 101q-2.51 27.24-9.5 54.18c-7.53-7.03-14.38-14.14-24.32-10.32-9.3 3.57-13.31 14.32-8.49 22.83 2.01 3.54 6.29 6.71 9.54 9.71q7.45 6.88 12.19 13.46-7.76 18.59-17.77 36.64-6.16-20.31-19.27-34.61c-4.83-5.27-9.94-8.51-16.89-7.03-10.2 2.17-15.84 12.99-11.52 22.27 1.97 4.25 7 8.43 9.78 12.76 12.75 19.89 12.08 45.23-3.24 63.76q-2.65 3.21-5.11 5.61-4.36 3.16-8.17 6.73-6.8 6.37-6.83 6.4-32.41 28.17-71.96 46.51-4.18-2.89-8.07-2.89-63.5-.02-127-.01c-19.53 0-22.17 27.54-3.25 31.76q1.67.37 7.49.27c-5.42 1.72-10.66.54-15.17.43q-22.7-.55-45.31-3.7-.02-127.48 0-255.05c.01-8.49 1.64-14.93 9.49-18.28q3.3-1.41 10.21-1.41 171.73-.03 343.17-.02ZM196.79 248.66c-12.13 28.51-47.73 37.97-71.42 17.22-22.65-19.85-19.77-56.3 5.9-72.11q19.44-11.96 40.91-3.38 5.53 2.21 7.06 2.41c14.46 1.87 23.51-14.99 14.28-26.13-2.65-3.19-6.81-5.05-10.74-6.53-52.93-19.92-109.62 21.56-104.48 78.49 3.47 38.5 34.75 68.58 73.22 70.27 41.82 1.83 77.11-29.89 80.28-71.35.69-9.07-.97-16.6-9.6-20.23q-3.16-1.32-9.08-1.32-18.47.01-36.95-.01-7.5-.02-10.7 1.2c-16.84 6.39-11.28 31.21 7.03 30.83q9.09-.19 23.9.06.63.01.39.58Z"/><path fill="#d1e7ff" d="M402.88 101q25.84.01 51.37-.03 12.35-.02 16.42 9.93 1.34 3.28 1.34 9.39-.03 134.19 0 268.39.01 9.29-1.54 12.94-2.5 5.93-8.68 8.18-3.33 1.21-11.22 1.21Q255 410.99 59.43 411c-8.31 0-14.93-1.98-18.09-9.78q-1.41-3.48-1.35-12.1.04-6.67.02-13.36 22.61 3.15 45.31 3.7c4.51.11 9.75 1.29 15.17-.43q58.93-.06 117.93-.02 5.8.01 8.1-.69c13.32-4.01 14.96-19.86 4.8-28.42q39.55-18.34 71.96-46.51.03-.03 6.83-6.4 3.81-3.57 8.17-6.73-4.44 7.12-2.52 13.73c2.64 9.1 12.31 14.52 20.97 11.08q4.14-1.65 9.39-7.57 14.24-16.04 19.09-36.5 5.23-22.07-.68-43.5 10.01-18.05 17.77-36.64c31.21 42.67 24.98 101.2-14.91 135.76q-4.51 3.9-5.72 5.82c-7.58 12.06 3.61 27.31 17.39 23.92q3.7-.91 8.3-4.79c40.26-34.03 56.58-89.13 40.95-139.71q-10.22-33.06-34.93-56.68 6.99-26.94 9.5-54.18Z"/><path fill="#2e58ff" d="M393.38 155.18q24.71 23.62 34.93 56.68c15.63 50.58-.69 105.68-40.95 139.71q-4.6 3.88-8.3 4.79c-13.78 3.39-24.97-11.86-17.39-23.92q1.21-1.92 5.72-5.82c39.89-34.56 46.12-93.09 14.91-135.76q-4.74-6.58-12.19-13.46c-3.25-3-7.53-6.17-9.54-9.71-4.82-8.51-.81-19.26 8.49-22.83 9.94-3.82 16.79 3.29 24.32 10.32ZM196.4 248.08q-14.81-.25-23.9-.06c-18.31.38-23.87-24.44-7.03-30.83q3.2-1.22 10.7-1.2 18.48.02 36.95.01 5.92 0 9.08 1.32c8.63 3.63 10.29 11.16 9.6 20.23-3.17 41.46-38.46 73.18-80.28 71.35-38.47-1.69-69.75-31.77-73.22-70.27-5.14-56.93 51.55-98.41 104.48-78.49 3.93 1.48 8.09 3.34 10.74 6.53 9.23 11.14.18 28-14.28 26.13q-1.53-.2-7.06-2.41-21.47-8.58-40.91 3.38c-25.67 15.81-28.55 52.26-5.9 72.11 23.69 20.75 59.29 11.29 71.42-17.22q.24-.57-.39-.58Z"/><path fill="#2e58ff" d="M364.53 227.5q5.91 21.43.68 43.5-4.85 20.46-19.09 36.5-5.25 5.92-9.39 7.57c-8.66 3.44-18.33-1.98-20.97-11.08q-1.92-6.61 2.52-13.73 2.46-2.4 5.11-5.61c15.32-18.53 15.99-43.87 3.24-63.76-2.78-4.33-7.81-8.51-9.78-12.76-4.32-9.28 1.32-20.1 11.52-22.27 6.95-1.48 12.06 1.76 16.89 7.03q13.11 14.3 19.27 34.61ZM231.32 349.9c10.16 8.56 8.52 24.41-4.8 28.42q-2.3.7-8.1.69-59-.04-117.93.02-5.82.1-7.49-.27C74.08 374.54 76.72 347 96.25 347q63.5-.01 127 .01 3.89 0 8.07 2.89Z"/></svg>