<svg xmlns="http://www.w3.org/2000/svg" width="800" height="400" xmlns:v="https://vecta.io/nano"><defs><pattern id="A" width="1" height="1"><linearGradient id="B" x1="0" y1="0" x2="0" y2="1"><stop offset="0%" stop-color="#dbf4ff"/><stop offset="100%" stop-color="#fff1f1"/></linearGradient><path fill="url(#B)" d="M0 0h800v400H0z"/></pattern></defs><path fill="url(#A)" d="M0 0h800v400H0z"/><clipPath id="C"><path d="M299 183.2h-9.2v-43.7h28.9v7.6H299v10.4h17.8v7.6H299v18.1zm32.2 0h-9v-32.8h8.8v5.7h.3q.9-3 3-4.6 2.1-1.5 4.9-1.5h0q.6 0 1.4 0 .8.1 1.4.3h0v8q-.6-.2-1.7-.3-1.2-.2-2.1-.2h0q-2 0-3.6.9-1.6.9-2.5 2.4-.9 1.5-.9 3.5h0v18.6zm26.9.6h0q-5.1 0-8.7-2.1-3.6-2-5.6-5.8-2-3.8-2-9h0q0-5 2-8.8 2-3.8 5.5-6 3.6-2.1 8.4-2.1h0q3.2 0 6 1 2.8 1.1 4.9 3.1 2.1 2.1 3.3 5.2 1.2 3.2 1.2 7.3h0v2.5h-27.6v-5.6h19q0-2-.8-3.5-.9-1.5-2.4-2.4-1.5-.8-3.4-.8h0q-2.1 0-3.7.9-1.6 1-2.5 2.6-.9 1.6-.9 3.5h0v5.3q0 2.5.9 4.2.9 1.8 2.6 2.8 1.6.9 3.9.9h0q1.5 0 2.8-.4 1.2-.4 2.1-1.3.9-.8 1.4-2.1h0l8.4.6q-.6 3-2.6 5.3-2 2.2-5.1 3.5-3.1 1.2-7.1 1.2zm33.8 0h0q-5 0-8.7-2.1-3.6-2-5.6-5.8-1.9-3.8-1.9-9h0q0-5 1.9-8.8 2-3.8 5.6-6 3.5-2.1 8.4-2.1h0q3.2 0 6 1 2.8 1.1 4.9 3.1 2.1 2.1 3.3 5.2 1.1 3.2 1.1 7.3h0v2.5h-27.6v-5.6h19.1q0-2-.9-3.5-.8-1.5-2.3-2.4-1.5-.8-3.5-.8h0q-2.1 0-3.6.9-1.6 1-2.5 2.6-.9 1.6-.9 3.5h0v5.3q0 2.5.9 4.2.9 1.8 2.5 2.8 1.7.9 4 .9h0q1.5 0 2.7-.4 1.3-.4 2.2-1.3.9-.8 1.4-2.1h0l8.4.6q-.7 3-2.7 5.3-1.9 2.2-5 3.5-3.1 1.2-7.2 1.2zm60.1-16.7v-27.6h9.2v28.4q0 4.7-2.2 8.3-2.3 3.6-6.4 5.6-4.1 2-9.5 2h0q-5.4 0-9.5-2-4-2-6.3-5.6-2.3-3.6-2.3-8.3h0v-28.4h9.3v27.6q0 2.5 1.1 4.4 1.1 1.9 3.1 3.1 2 1.1 4.6 1.1h0q2.7 0 4.7-1.1 2-1.2 3.1-3.1 1.1-1.9 1.1-4.4h0zm24 16.1h-9.2v-43.7H484q5 0 8.5 1.9 3.5 1.9 5.3 5.2 1.9 3.4 1.9 7.7h0q0 4.4-1.9 7.7-1.9 3.3-5.4 5.2-3.6 1.8-8.6 1.8h0-11v-7.4h9.5q2.7 0 4.4-.9 1.7-.9 2.6-2.6.9-1.6.9-3.8h0q0-2.2-.9-3.8-.9-1.6-2.6-2.5-1.8-.9-4.4-.9h0-6.3v36.1zm27.7-43.7h9.2v43.7h-9.2v-43.7z"/></clipPath><defs><pattern id="D" width="1" height="1"><linearGradient id="E" x1="0" y1="0" x2="1" y2="0"><stop offset="0%" stop-color="#007cf0"/><stop offset="100%" stop-color="#00dfd8"/></linearGradient><path fill="url(#E)" d="M0 0h228v73H0z"/></pattern></defs><path fill="url(#D)" clip-path="url(#C)" d="M286 127h228v73H286z"/><clipPath id="F"><path d="M231.7 256.2h-27.9v-43.7h9.2v36.1h18.7v7.6zm13 0h-9v-32.8h9v32.8zm-4.5-37h0q-2 0-3.4-1.3-1.5-1.4-1.5-3.3h0q0-1.9 1.5-3.2 1.4-1.4 3.4-1.4h0q2.1 0 3.5 1.4 1.4 1.3 1.4 3.2h0q0 1.9-1.4 3.3-1.4 1.3-3.5 1.3zm18.9 18h0v19H250v-32.8h8.6v5.8h.4q1.1-2.8 3.7-4.5 2.5-1.7 6.2-1.7h0q3.4 0 5.9 1.5 2.5 1.5 4 4.2 1.4 2.8 1.4 6.6h0v20.9h-9.1v-19.3q0-3-1.5-4.7-1.6-1.7-4.3-1.7h0q-1.9 0-3.3.8-1.4.8-2.1 2.3-.8 1.5-.8 3.6zm40.4 2.7l-6 6.8v-10.8h1.4l10.4-12.5h10.5l-14.1 16.5h-2.2zm-5.1 16.3h-9.1v-43.7h9.1v43.7zm22 0h-10.6l-9.7-14.3 6.1-6.4 14.2 20.7zm28.5 12.9h0q-4.5 0-7.6-1.2-3.1-1.2-5-3.3-1.8-2-2.4-4.6h0l8.4-1.1q.4.9 1.2 1.8.8.9 2.2 1.4 1.4.5 3.4.5h0q2.9 0 4.9-1.4 1.9-1.5 1.9-4.8h0v-6h-.4q-.6 1.3-1.8 2.5-1.2 1.3-3.1 2-1.8.8-4.4.8h0q-3.7 0-6.7-1.7-3-1.7-4.8-5.3-1.8-3.5-1.8-9h0q0-5.5 1.8-9.3 1.8-3.7 4.8-5.5 3.1-1.9 6.7-1.9h0q2.7 0 4.6.9 1.8 1 2.9 2.3 1.2 1.4 1.8 2.7h0 .3v-5.5h9.1v33.1q0 4.2-2.1 7-2 2.8-5.6 4.2-3.7 1.4-8.3 1.4zm.1-20.2h0q2.2 0 3.8-1.1 1.5-1.1 2.3-3.2.8-2 .8-4.9h0q0-2.9-.8-5-.8-2.1-2.3-3.3-1.6-1.2-3.8-1.2h0q-2.2 0-3.7 1.2-1.6 1.2-2.3 3.4-.8 2.1-.8 4.9h0q0 2.8.8 4.9.8 2 2.3 3.2 1.5 1.1 3.7 1.1zm36 7.9h0q-5 0-8.7-2.1-3.6-2-5.6-5.8-1.9-3.8-1.9-9h0q0-5 1.9-8.8 2-3.8 5.6-6 3.5-2.1 8.4-2.1h0q3.2 0 6 1 2.8 1.1 4.9 3.1 2.1 2.1 3.3 5.2 1.1 3.2 1.1 7.3h0v2.5h-27.6v-5.6h19.1q0-2-.9-3.5-.8-1.5-2.3-2.4-1.5-.8-3.5-.8h0q-2.1 0-3.6.9-1.6 1-2.5 2.6-.9 1.6-.9 3.5h0v5.3q0 2.5.9 4.2.9 1.8 2.5 2.8 1.7.9 4 .9h0q1.5 0 2.7-.4 1.3-.4 2.2-1.3.9-.8 1.4-2.1h0l8.3.6q-.6 3-2.6 5.3-1.9 2.2-5 3.5-3.1 1.2-7.2 1.2zm28-19.6h0v19h-9v-32.8h8.6v5.8h.4q1.1-2.8 3.6-4.5 2.6-1.7 6.2-1.7h0q3.5 0 6 1.5 2.5 1.5 3.9 4.2 1.4 2.8 1.4 6.6h0v20.9h-9v-19.3q0-3-1.6-4.7-1.5-1.7-4.3-1.7h0q-1.8 0-3.2.8-1.4.8-2.2 2.3-.7 1.5-.8 3.6zm41.2 19.6h0q-5.1 0-8.7-2.1-3.6-2-5.6-5.8-1.9-3.8-1.9-9h0q0-5 1.9-8.8 2-3.8 5.5-6 3.6-2.1 8.4-2.1h0q3.3 0 6.1 1 2.8 1.1 4.9 3.1 2.1 2.1 3.2 5.2 1.2 3.2 1.2 7.3h0v2.5h-27.6v-5.6h19.1q0-2-.9-3.5-.8-1.5-2.3-2.4-1.5-.8-3.5-.8h0q-2.1 0-3.7.9-1.6 1-2.5 2.6-.9 1.6-.9 3.5h0v5.3q0 2.5.9 4.2.9 1.8 2.6 2.8 1.7.9 3.9.9h0q1.5 0 2.8-.4 1.3-.4 2.2-1.3.9-.8 1.3-2.1h0l8.4.6q-.6 3-2.6 5.3-2 2.2-5.1 3.5-3.1 1.2-7.1 1.2zm28-.6h-9.1v-32.8h8.8v5.7h.4q.9-3 3-4.6 2.1-1.5 4.8-1.5h0q.7 0 1.5 0 .8.1 1.4.3h0v8q-.7-.2-1.8-.3-1.1-.2-2-.2h0q-2 0-3.6.9-1.6.9-2.5 2.4-.9 1.5-.9 3.5h0v18.6zm21.9.6h0q-3.2 0-5.6-1.1-2.5-1.1-3.9-3.3-1.4-2.1-1.4-5.4h0q0-2.7 1-4.6 1-1.8 2.7-2.9 1.8-1.2 4-1.7 2.2-.6 4.6-.9h0q2.9-.3 4.6-.5 1.7-.3 2.5-.8.8-.6.8-1.6h0v-.1q0-2.1-1.2-3.2-1.3-1.1-3.6-1.1h0q-2.5 0-3.9 1.1-1.5 1.1-1.9 2.7h0l-8.4-.7q.6-3 2.5-5.1 1.8-2.2 4.8-3.4 3-1.2 6.9-1.2h0q2.7 0 5.2.6 2.5.7 4.5 2 1.9 1.4 3.1 3.5 1.1 2.1 1.1 5h0v22.1h-8.6v-4.6h-.3q-.8 1.6-2.1 2.7-1.3 1.2-3.1 1.8-1.9.7-4.3.7zm2.6-6.3h0q2 0 3.5-.8 1.5-.8 2.4-2.1.9-1.4.9-3.1h0V241q-.4.3-1.2.5-.7.2-1.6.4-.9.2-1.9.3-.9.2-1.6.3h0q-1.6.2-2.8.7-1.2.5-1.9 1.4-.6.8-.6 2.1h0q0 1.9 1.3 2.8 1.4 1 3.5 1zm18.6-27.1H541v6.9h-19.7v-6.9zm4.4 23.9v-31.7h9.1v30.5q0 1.3.4 2 .4.6 1.1.9.7.3 1.6.3h0q.6 0 1.3-.1.6-.1.9-.2h0l1.5 6.8q-.7.2-2 .5-1.2.2-3 .3h0q-3.2.1-5.7-.9-2.5-1-3.8-3.1-1.4-2.1-1.4-5.3h0zm33.6 9.5h0q-5 0-8.6-2.1-3.6-2.1-5.5-5.9-2-3.8-2-8.9h0q0-5 2-8.8 1.9-3.9 5.5-6 3.6-2.1 8.6-2.1h0q5 0 8.6 2.1 3.6 2.1 5.6 6 1.9 3.8 1.9 8.8h0q0 5.1-1.9 8.9-2 3.8-5.6 5.9-3.6 2.1-8.6 2.1zm.1-7h0q2.2 0 3.7-1.3 1.5-1.3 2.3-3.5.8-2.3.8-5.1h0q0-2.9-.8-5.1-.8-2.3-2.3-3.6-1.5-1.3-3.7-1.3h0q-2.3 0-3.9 1.3-1.5 1.3-2.3 3.6-.8 2.2-.8 5.1h0q0 2.8.8 5.1.8 2.2 2.3 3.5 1.6 1.3 3.9 1.3zm29 6.4h-9.1v-32.8h8.8v5.7h.4q.9-3 3-4.6 2.1-1.5 4.8-1.5h0q.7 0 1.5 0 .8.1 1.4.3h0v8q-.6-.2-1.8-.3-1.1-.2-2-.2h0q-2 0-3.6.9-1.6.9-2.5 2.4-.9 1.5-.9 3.5h0v18.6z"/></clipPath><defs><pattern id="G" width="1" height="1"><linearGradient id="H" x1="0" y1="0" x2="1" y2="0"><stop offset="0%" stop-color="#7928ca"/><stop offset="100%" stop-color="#ff0080"/></linearGradient><path fill="url(#H)" d="M0 0h400v73H0z"/></pattern></defs><path fill="url(#G)" clip-path="url(#F)" d="M200 200h400v73H200z"/></svg>