<svg id="svg-comp" width="100%" height="100%" viewBox="0 0 500 500" fill="none" preserveAspectRatio="none" xmlns="http://www.w3.org/2000/svg" class="transition" style="border-radius: 0%; transform: scale(1) rotate(0deg);"><defs><mask id="globeOuterOnly"><path d="M433.081 65.2949C401.979 65.2949 372.291 77.5065 350.295 99.4933C285.63 164.128 146.668 303.024 87.5399 362.098C70.0162 379.606 60.0004 403.917 60.0004 428.688C59.9911 429.6 60.1638 430.503 60.5082 431.347C60.8526 432.191 61.362 432.957 62.0063 433.602C62.6507 434.246 63.4171 434.755 64.2607 435.1C65.1044 435.444 66.0083 435.617 66.9195 435.607C90.6239 435.607 115.987 425.127 132.73 408.348C212.188 328.718 438.801 102.058 438.823 102.036C438.824 102.035 438.824 102.035 438.825 102.034C439.5 101.361 440 100.496 440 99.5426V72.2141C440.009 71.3028 439.836 70.399 439.492 69.5553C439.147 68.7117 438.638 67.9452 437.994 67.3009C437.349 66.6565 436.583 66.1472 435.739 65.8028C434.896 65.4583 433.992 65.2857 433.081 65.2949ZM390.02 391.912C372.754 409.176 388.072 435.607 412.488 435.607H433.081C433.992 435.617 434.896 435.444 435.739 435.1C436.583 434.755 437.349 434.246 437.994 433.602C438.638 432.957 439.147 432.191 439.492 431.347C439.836 430.503 440.009 429.6 440 428.688V408.239C440 383.803 407.301 374.634 390.02 391.912ZM287.066 384.15C268.077 403.139 281.526 435.607 308.38 435.607C319.798 435.607 332.022 430.491 340.078 422.4C362.29 400.09 407.058 355.31 428.302 334.113C435.625 326.805 440 316.265 440 305.919C440 278.352 406.67 264.546 387.176 284.039L287.066 384.15ZM176.36 384.15C157.371 403.139 170.819 435.607 197.674 435.607C209.092 435.607 221.264 430.572 229.323 422.484C269.366 382.298 390.286 261.368 428.378 223.346C435.7 216.037 440 205.559 440 195.213C440 167.646 406.67 153.84 387.176 173.333L176.36 384.15ZM309.904 120.249C330.183 99.9696 315.82 65.2949 287.141 65.2949C278.6 65.2949 270.482 68.615 264.442 74.6527C228.499 110.579 106.846 232.141 70.4012 268.52C63.7512 275.158 60.0004 284.322 60.0004 293.718C60.0004 321.924 94.103 336.05 114.048 316.105L309.904 120.249ZM199.192 120.255C219.473 99.9731 205.109 65.2949 176.427 65.2949C167.891 65.2949 159.704 68.6851 153.666 74.7187C125.625 102.74 97.5652 130.743 69.4877 158.728C63.4147 164.781 60.0004 173.002 60.0004 181.577C60.0004 210.312 94.7431 224.703 115.062 204.384L199.192 120.255ZM105.042 103.693C120.43 88.3058 106.231 65.2949 84.4698 65.2949H66.9195C66.0083 65.2857 65.1044 65.4583 64.2607 65.8028C63.4171 66.1472 62.6507 66.6565 62.0063 67.3009C61.362 67.9452 60.8526 68.7117 60.5082 69.5553C60.1638 70.399 59.9911 71.3028 60.0004 72.2141V89.7063C60.0004 111.476 89.6477 119.086 105.042 103.693Z" fill="hsl(330, 85%, 75%)" stroke="hsl(330, 85%, 75%)" stroke-width="0"></path></mask></defs><path d="M433.081 65.2949C401.979 65.2949 372.291 77.5065 350.295 99.4933C285.63 164.128 146.668 303.024 87.5399 362.098C70.0162 379.606 60.0004 403.917 60.0004 428.688C59.9911 429.6 60.1638 430.503 60.5082 431.347C60.8526 432.191 61.362 432.957 62.0063 433.602C62.6507 434.246 63.4171 434.755 64.2607 435.1C65.1044 435.444 66.0083 435.617 66.9195 435.607C90.6239 435.607 115.987 425.127 132.73 408.348C212.188 328.718 438.801 102.058 438.823 102.036C438.824 102.035 438.824 102.035 438.825 102.034C439.5 101.361 440 100.496 440 99.5426V72.2141C440.009 71.3028 439.836 70.399 439.492 69.5553C439.147 68.7117 438.638 67.9452 437.994 67.3009C437.349 66.6565 436.583 66.1472 435.739 65.8028C434.896 65.4583 433.992 65.2857 433.081 65.2949ZM390.02 391.912C372.754 409.176 388.072 435.607 412.488 435.607H433.081C433.992 435.617 434.896 435.444 435.739 435.1C436.583 434.755 437.349 434.246 437.994 433.602C438.638 432.957 439.147 432.191 439.492 431.347C439.836 430.503 440.009 429.6 440 428.688V408.239C440 383.803 407.301 374.634 390.02 391.912ZM287.066 384.15C268.077 403.139 281.526 435.607 308.38 435.607C319.798 435.607 332.022 430.491 340.078 422.4C362.29 400.09 407.058 355.31 428.302 334.113C435.625 326.805 440 316.265 440 305.919C440 278.352 406.67 264.546 387.176 284.039L287.066 384.15ZM176.36 384.15C157.371 403.139 170.819 435.607 197.674 435.607C209.092 435.607 221.264 430.572 229.323 422.484C269.366 382.298 390.286 261.368 428.378 223.346C435.7 216.037 440 205.559 440 195.213C440 167.646 406.67 153.84 387.176 173.333L176.36 384.15ZM309.904 120.249C330.183 99.9696 315.82 65.2949 287.141 65.2949C278.6 65.2949 270.482 68.615 264.442 74.6527C228.499 110.579 106.846 232.141 70.4012 268.52C63.7512 275.158 60.0004 284.322 60.0004 293.718C60.0004 321.924 94.103 336.05 114.048 316.105L309.904 120.249ZM199.192 120.255C219.473 99.9731 205.109 65.2949 176.427 65.2949C167.891 65.2949 159.704 68.6851 153.666 74.7187C125.625 102.74 97.5652 130.743 69.4877 158.728C63.4147 164.781 60.0004 173.002 60.0004 181.577C60.0004 210.312 94.7431 224.703 115.062 204.384L199.192 120.255ZM105.042 103.693C120.43 88.3058 106.231 65.2949 84.4698 65.2949H66.9195C66.0083 65.2857 65.1044 65.4583 64.2607 65.8028C63.4171 66.1472 62.6507 66.6565 62.0063 67.3009C61.362 67.9452 60.8526 68.7117 60.5082 69.5553C60.1638 70.399 59.9911 71.3028 60.0004 72.2141V89.7063C60.0004 111.476 89.6477 119.086 105.042 103.693Z" fill="hsl(330, 85%, 75%)" stroke="hsl(330, 85%, 75%)" stroke-width="0"></path><image href="../rect5.png" height="500" width="500" opacity="0.6" mask="url(#globeOuterOnly)"></image></svg>